<mxfile host="app.diagrams.net" modified="2024-06-02T16:14:49.773Z" agent="Mozilla/5.0 (Windows NT 10.0; Win64; x64) AppleWebKit/537.36 (KHTML, like Gecko) Chrome/125.0.0.0 Safari/537.36" etag="qm7IXLoiYz97YZta2PcR" version="24.3.1" type="github">
  <diagram name="Page-1" id="bzJE4b9uHi_iaJvu8vjC">
    <mxGraphModel dx="700" dy="371" grid="0" gridSize="10" guides="1" tooltips="1" connect="1" arrows="1" fold="1" page="1" pageScale="1" pageWidth="827" pageHeight="1169" math="0" shadow="0">
      <root>
        <mxCell id="0" />
        <mxCell id="1" parent="0" />
        <mxCell id="jdwVhn9pci9fnTV9FCDL-1" value="&lt;a class=&quot;CID99cc0332-8d89-429c-83b2-ff9768ebf7d6&quot; data-sessionid=&quot;620fdd3e-8947-ba6f-aff6-81cb1eac4af1&quot; data-shapeids=&quot;10&quot; data-slideid=&quot;&quot; style=&quot;color: rgb(0, 0, 0); font-family: &amp;quot;Times New Roman&amp;quot;; font-size: medium; font-style: normal; font-variant-ligatures: normal; font-variant-caps: normal; font-weight: 400; letter-spacing: normal; orphans: 2; text-align: start; text-indent: 0px; text-transform: none; widows: 2; word-spacing: 0px; -webkit-text-stroke-width: 0px; white-space: normal; text-decoration-thickness: initial; text-decoration-style: initial; text-decoration-color: initial;&quot;&gt;&amp;nbsp;&lt;/a&gt;&lt;img src=&quot;data:image/jpg;base64,/9j/4AAQSkZJRgABAQEAYABgAAD/2wBDAAUDBAQEAwUEBAQFBQUGBwwIBwcHBw8LCwkMEQ8SEhEPERETFhwXExQaFRERGCEYGh0dHx8fExciJCIeJBweHx7/2wBDAQUFBQcGBw4ICA4eFBEUHh4eHh4eHh4eHh4eHh4eHh4eHh4eHh4eHh4eHh4eHh4eHh4eHh4eHh4eHh4eHh4eHh7/wAARCAEMAqIDASIAAhEBAxEB/8QAHwAAAQUBAQEBAQEAAAAAAAAAAAECAwQFBgcICQoL/8QAtRAAAgEDAwIEAwUFBAQAAAF9AQIDAAQRBRIhMUEGE1FhByJxFDKBkaEII0KxwRVS0fAkM2JyggkKFhcYGRolJicoKSo0NTY3ODk6Q0RFRkdISUpTVFVWV1hZWmNkZWZnaGlqc3R1dnd4eXqDhIWGh4iJipKTlJWWl5iZmqKjpKWmp6ipqrKztLW2t7i5usLDxMXGx8jJytLT1NXW19jZ2uHi4+Tl5ufo6erx8vP09fb3+Pn6/8QAHwEAAwEBAQEBAQEBAQAAAAAAAAECAwQFBgcICQoL/8QAtREAAgECBAQDBAcFBAQAAQJ3AAECAxEEBSExBhJBUQdhcRMiMoEIFEKRobHBCSMzUvAVYnLRChYkNOEl8RcYGRomJygpKjU2Nzg5OkNERUZHSElKU1RVVldYWVpjZGVmZ2hpanN0dXZ3eHl6goOEhYaHiImKkpOUlZaXmJmaoqOkpaanqKmqsrO0tba3uLm6wsPExcbHyMnK0tPU1dbX2Nna4uPk5ebn6Onq8vP09fb3+Pn6/9oADAMBAAIRAxEAPwD7Lorzrxtp4134veHdDvNR1q305tA1O7eHT9XurHfKlxYojMbeRC2FlkABJHzGtL/hWnh3/oJeM/8Aws9W/wDkmgDs6K4z/hWnh3/oJeM//Cz1b/5Jo/4Vp4d/6CXjP/ws9W/+SaAOzorjP+FaeHf+gl4z/wDCz1b/AOSaP+FaeHf+gl4z/wDCz1b/AOSaAOzorjP+FaeHf+gl4z/8LPVv/kmj/hWnh3/oJeM//Cz1b/5JoA7OiuM/4Vp4d/6CXjP/AMLPVv8A5Jo/4Vp4d/6CXjP/AMLPVv8A5JoA7OiuM/4Vp4d/6CXjP/ws9W/+SaP+FaeHf+gl4z/8LPVv/kmgDs6K8o1zQYPCvxN+Hg0fVvE3l6hql3Bdw3niK/vIpo10+5kAaOeZ14dFYHGcgV6vQAUUUUAFFFFABRRRQAUUUUAFFFFABRRRQAUUUUAFFFFABRRRQAUUUUAFFFFABRRRQAUUUUAFFFFABRRRQAUUUUAFFFFABRRRQAUUUUAFFFFABRRRQAUUUUAFFFFABRRRQAUUUUAFFFFABRRRQAUUUUAFFFcF8XIXvdS8DaSb7U7S11DxE0N39g1CezkljGn3sgQyQur7d8aNgHkqKAO9orjP+FaeHf8AoJeM/wDws9W/+SaP+FaeHf8AoJeM/wDws9W/+SaAOzorjP8AhWnh3/oJeM//AAs9W/8Akmj/AIVp4d/6CXjP/wALPVv/AJJoA7OiuM/4Vp4d/wCgl4z/APCz1b/5Jo/4Vp4d/wCgl4z/APCz1b/5JoA7OiuM/wCFaeHf+gl4z/8ACz1b/wCSaP8AhWnh3/oJeM//AAs9W/8AkmgDs6K4z/hWnh3/AKCXjP8A8LPVv/kmj/hWnh3/AKCXjP8A8LPVv/kmgDs6K4z/AIVp4d/6CXjP/wALPVv/AJJrn/HnhLT/AA1pWm6vpGreLY7uPxBo8IM3inUriNo5dStopFaOWdkZWR2UhgRg0Aep0UUUAcNqv/JfPDf/AGK2rf8ApVp1dzXDar/yXzw3/wBitq3/AKVadXc0AFFFFABRRRQAUUUUAFFFFABRRRQB598Sf+SmfC3/ALDV7/6a7uvQa8++JP8AyUz4W/8AYavf/TXd16DQAUUUUAFFFFABRRRQAUUUUAFFFFABRRRQAUUUUAFFFFABRRRQAUUUUAFFFFABRRRQAUUUUAFFFFABRRRQAUUUUAFFFFABRRRQAUUUUAFFFFABRRRQAUUUUAFFFFABRRRQAUUUUAFFFFABRRRQAUUUUAFcR8TP+Rq+G/8A2ND/APpr1Cu3riPiZ/yNXw3/AOxof/016hQB29FFFABRRRQAUUUUAFFFFABRRRQAVxnxk/5FGx/7GTQf/TtaV2dcZ8ZP+RRsf+xk0H/07WlAHZ0UUUAcNqv/ACXzw3/2K2rf+lWnV3NcNqv/ACXzw3/2K2rf+lWnV3NABRRRQAUUUUAFFFFABRRRQAUUUUAeffEn/kpnwt/7DV7/AOmu7r0GvPviT/yUz4W/9hq9/wDTXd16DQAUUUUAFFFFAHJfFLxtb+B9Ds7x7ZLu91K/i03TreS4WCOW5kDFQ8rcIuEYk8njABJAOR/YfxY1qBJdS8caP4aOcm20TShcMB6Ge5JDfhEv41D8crCx1TUfh5p2p2dve2dx4rEc1vPGHjkU6ffZDKeCKmf4S6TYxJH4T8S+LPCcakkQ6bqjSW/4Q3AljUf7irQBMnw5vpTnUvib47vSey3kFqoPt5EKH8yaZ/wqbRsf8jV8QT/3OGof/HaLfwf8RLNibf4t3l2vZdR0O0lAH1iER/M1MNF+LOP+SgeFD/3Kc3/ydQBHH8LbKDLWfjXx/buf4m8SXE/6TFx+n9KY/gXxta7TpPxf8Q/KcldT06xulb2OyKNsfQ59xUzeH/ilMCs/xI0WEdjZeGNjD8ZLmQfpVUfDnxNdbRrHxg8Z3KAglLSOysww9CYoAwH0IPoRQBXuPG3inwb4m0bR/iAvh+6sdbvU0+w1PS5HglNw33FktZGYhWPG5HfaSMgA5Hp1eH/FP4f+EvDMHhrVtL0tn1Wbxbo6S6jeXMt3duv2tMgzTMz4OBkA4OB6V7hQAUUUUAFFFFABRRRQAUUUUAFFFFABRRRQAUUUUAFFFFABRRRQAUUUUAFFFFABRRRQAUUUUAFFFFABRRRQAUUUUAFFFFABRRRQAUUUUAFFFFABRRRQAUUUUAFcR8TP+Rq+G/8A2ND/APpr1Cu3riPiZ/yNXw3/AOxof/016hQB29FFFABRRRQAUUUUAFFFFABRRRQAVxnxk/5FGx/7GTQf/TtaV2dcZ8ZP+RRsf+xk0H/07WlAHZ0UUUAcNqv/ACXzw3/2K2rf+lWnV3NcNqv/ACXzw3/2K2rf+lWnV3NABRRRQAUUUUAFFFFABRRRQAUUUUAeffEn/kpnwt/7DV7/AOmu7r0GvLfjdpK654y+GultqGo6eJtau83Gn3JgnTbp103yuORnGD6gkd6vf8Kot/8Aof8A4i/+FFLQB6JRXnf/AAqi3/6H/wCIv/hRS0f8Kot/+h/+Iv8A4UUtAHolYVt4y8KXHiS78NReItM/tqzdUnsGuFWdSyqw+QnJBDKcgEc1zH/CqLf/AKH/AOIv/hRS18/eN/2RfEfi/wCK2t6xP4wFrokzxfZ7q9ke+v5sRIpL52jGQwBLZwBxQB9CfF7/AJGL4af9jcv/AKb76vQa+dvFXw/Hw30jwPBa+LvFGtSprzBX1S/MqxFdMvyDEuAI+emM/WvQ9N1y60mPTWXWm1BZ9IkvLuK6kD/Z3WNWDFlG4KS2MHPtWFSuqckmc9XERpSSkejUV5sPF+vXjWsEM1hbypqdvbzuIG2yJKm9cAtlcYYHuePu8ipJ/HuoxnUtkVhKsdrNcWjIr7f3cgTDEkFs88gL079az+u0jL6/S3PRaK4RfFmvQ6sLW8ttN8mPUrezmMe/cROgZSuTj5SRknr6Cs+f4h6ksGoPFBp8xS2F1aMgfYV+0CIqSxBbg5BwvfjHUeNpLf8Aqw3j6K38/wACT4+/8gXwr/2OGj/+laV6PXiHxivtek1nQtP1K5sfIh8SaDL5MMRGGa86hicnpz26YA5z7fXRTmpq9jop1FUV0goooqzQKKKKACiiigAooooAKKKKACiis3xHr+h+G9NbUvEGr2Ol2anBmu51iXPoCx5PHQc0AaVFedRfEnVNdiMngbwBr+sw5GLzUVGlWpB7qZ8St9ViI96WS0+M+qEs2seC/DMTDiKCyn1KVPrI7wqe3Hl/iaAPRKK4OHwX4wuIl/tb4s+IWfHzLp2n2FrGT7boJHH/AH3Veb4V+eweb4jfERmxjKa35Y/JEA/SgD0SivOP+FSw/wDRRPiR/wCFDJ/hVxPAGs26/wCgfFTxvA3bzWsrkfj5tsx/IigDu6K87k8P/F2zkd9P+Iug6in8Eeq+HcH8XgmTP4KPpTz4n+JWkP8A8T34dQapbIpL3Ph7VUlcj1EFwsTf8BDMfTdQB6DRXJeD/iN4S8UXjabY6hJaasn39L1K3ezvV4znyZQrMv8AtKCvB54NdbQAUUUUAFFFFABRRRQAUUUUAFFFFABRRRQAUUUUAFFFFABRRRQAUUUUAFFFFABXEfEz/kavhv8A9jQ//pr1Cu3riPiZ/wAjV8N/+xof/wBNeoUAdvRRRQAUUUUAFFFFABRRRQAUUUUAFcZ8ZP8AkUbH/sZNB/8ATtaV2dcZ8ZP+RRsf+xk0H/07WlAHZ0UUUAcNqv8AyXzw3/2K2rf+lWnV3NcNqv8AyXzw3/2K2rf+lWnV3NABRRRQAUUUUAFFFFABRRRQAUUUUAeffEn/AJKZ8Lf+w1e/+mu7r0GvPviT/wAlM+Fv/Yavf/TXd16DQAUUUUAFFFFAHnnxjjjl134bxSorxv4tCsrDIYHTr7II7121tpOlWsUsVtpllBHMu2VY4FUOPQgDkVxHxvk/s9fBviG4jmOmaJ4jS91KaOJpPs9ubS6iMrKoJ2h5UyQOASTwCa7Pw/rui+INOj1HQtWsdUs5PuT2k6yofXlSRmk4pu9hOKbu0OGi6MsLQjSbARNjcgtk2nBJHGO2Tj60h0PRWJJ0fTySWJJtk5JGCenfvWhRU8kexPs4dis1hYtIZGsrYuZFkLGJcl14VunUdj2qD+wtE2hf7H07aCWA+zJjJxk9O+B+VaFBIAySAPem4RfQbhF7o8p/aUgmXw54evtMsbK41dPFGlLam4OwM32pSqNIAWVS2M4Bx1wa0ovina6Q6WvxD0HUfBs/Cm7uR5+msxOBtu0+QZ7CQRntisr4t69o/iPW/DfgzQNRt9V1638Saff3VnaOJWtbeCZZJZJivEYCj+IgkkAZJr1eaOOaJ4Zo0kjcFWR1yGB7EHrVWKsR2V1a31nFeWVxDc20yB4poXDpIp6FWHBB9RU1ee3/AMKdGtrubUvBWpaj4J1KVt7vpLgWsrY/5aWrgwtnqSFDZ53cnMTeIfiT4WLL4l8Lw+KtOXhdR8ODbc49ZLOVs/8AfuR/930APR6K5zwf468J+LXnh0HW7e6u7Y4ubNw0V1bnpiSFwJE5yPmUcg10dABRRXOWnieS81O5s7PRbuZLa7NrLN50KqGGMnazhiMEHgVEpxja/UidSMLX6nR0Vyv/AAmEqz6lFN4ev4jpkHn3ZMsJ8tdjOvR+chT0z74rodKvE1DS7S/jVkS5hSZVbqAyggH86UKsZu0WTCtCbtFlmiiitDUwfiH4kh8H+BtZ8Tzw+eum2kk6w7tvmuB8iZ7bmwufeuc8C/DxIbmHxX44lj8Q+MJkV5LmYb7ewYgfurONuIkGANwAd8ZY84Fb9qGJbj4CeK4GYqslqiEjqAZUHFV9M8Ya78P7ZNI+Jdvc3OnW6hIPFdpbmS3ljHCm7RMtbydAWwYyTncOgAPUqKpaJq+la5p0WpaLqVnqVlKMx3FrMssbj2ZSQau0AFFFFABRRRQAUUUEgDJ4FAGF4y8IeHPGGnCx8QaXBeKh3Qy/dmt36h4pFw8bAgfMpBrmfhjqOsaV4r1v4ca9qcuryaTbW97pmo3DA3FzZSl0CzYHzSxvEyl/4wVYgEmptf8AinoFvfzaL4YiuPGHiCM7W07R8S+S3T9/Lny4FzwS7A+gNcd8MtN8S2X7Ruv3fi3ULa51XUfC1rdSQ2qnyLNftUyLBGSAXChMliASzMcDgUAe3UUUUAFFFFABRRRQAUUUUAFFFFABRRRQAUUUUAFFFFABRRRQAUUUUAFFFFABXEfEz/kavhv/ANjQ/wD6a9Qrt64j4mf8jV8N/wDsaH/9NeoUAdvRRRQAUUUUAFFFFABRRRQAUUUUAFcZ8ZP+RRsf+xk0H/07WldnXGfGT/kUbH/sZNB/9O1pQB2dFFFAHDar/wAl88N/9itq3/pVp1dzXDar/wAl88N/9itq3/pVp1dzQAUUUUAFFFFABRRRQAUUUUAFFFFAHn3xJ/5KZ8Lf+w1e/wDpru69Brz74k/8lM+Fv/Yavf8A013deg0AFFFFABRRRQAHpXGa/wDCr4d65fG/1Dwjpn21m3NdW8Zt5mPqZIirH8TXZ0UAcJJ8L9JQbdN8S+N9MH92HxLdyqPYLM7gfgBVH/hVeof9Fc+JP/gfa/8AyPXpNFAHnlr8LpEY/bPiV8Q75Dj5JNXSID8YY0P69vrUtx8H/AV4UOrafqetFDkf2rrV7ejP0mlYfpXfUUAZ+gaHovh+wWw0LSLDS7RekFnbpCg/4CoArQoooAKKKKAOc8YeBvCfi7yX8QaHbXdxAcwXQzFcQn1jmQiRP+AsOlc2nhz4keFznwx4sh8UWAOf7P8AExInUDtHeRLu56fvEkPfPXPo9FAHntj8V9HtbiKx8caXqPgfUJH2Rrq6r9llP/TO6jLQn0wWVv8AZrS0zws0Wr3GsWtxol0l3eG8SaXTvNlQNj5UlEgwMDg46kmuru7a3vLWW1u7eK4t5VKSRSoGR1PBBB4IPpXAS/Cuz0hmuPh5rmoeC58lxa2eJtOdz3e0f5APXyzGx9e9ZzpRnbm6GdSlCpbmWx0l34bM9x4jl+2Bf7atEtwPLz5O2N03dfm+/nHHSrPhnT9U0uygsby+tLq3t4Ehh8q1aN8KAAWJdgeB2Arj/wDhLPHnhdQvjXwh/a9kg+fWPDIaYAZ4L2bfvlwOvlmX145x1XhDxj4Y8XWhuPDutWl+E/1sSPiaE+kkbYeM+zAGhUoJ8y/q+olRgpcy3/zdzdooorQ1POf2mP8Akhvif/rhH/6OSvRcArgjIIrzr9pj/khvif8A64R/+jkr0YdBQBxWq/CvwNfapJq8GjtpGqyZ3X2j3MthOxP8TNAy7z/vZz3zVCHwN440twdE+LWsTRqDtg1zTba9T8WRYpD/AN916JRQB57JH8a4JgIrz4f38Q6s9rd2rN+AeQD8zVlb74uqMN4Y8DTH+8PEV1H+n2Jv513NFAHD/wBofFv/AKFHwOP+5nuv/kGq1zJ8apmH2e0+H1mvfzLm8uD+kcdeg0UAefzeHvinqUYW/wDiLpekKcZGi6AokHt5lzLKp/74FMX4SaHfRFfF2teJPF5Lbtmq6k4gB/64Q+XEfxQn3r0OigClouk6Xomnx6do2m2em2cQxHb2sCxRqPZVAArhLT/k57Uv+xLs/wD0tua9Irze0/5Oe1L/ALEuz/8AS25oA9IooooAKKKKACiiigAooooAKKKKACiiigAooooAKKKKACiiigAooooAKKKKACuI+Jn/ACNXw3/7Gh//AE16hXb1xHxM/wCRq+G//Y0P/wCmvUKAO3ooooAKKKKACiiigAooooAKKKKACuM+Mn/Io2P/AGMmg/8Ap2tK7OuM+Mn/ACKNj/2Mmg/+na0oA7OiiigDhtV/5L54b/7FbVv/AEq06u5rhtV/5L54b/7FbVv/AEq06u5oAKKKKACiiigAooooAKKKKACiiigDz74k/wDJTPhb/wBhq9/9Nd3XoNeffEn/AJKZ8Lf+w1e/+mu7r0GgAooooAKKKKACiuf8eeLLHwjpVveXVrd3txeXcdlY2VoqtNdXD5KxpuIUcKxJJAAUnPFc5ayfGTWctJb+D/CEDD5VkM2rXA9iFMEanpyC49qAPQ6K8/g8IfER3Zr34uXmCchbPQrOLHt86yVP/wAIV4p/6K74w/8AALSv/kOgDuaK4STwZ4xUH7P8XPEpb/p403TXH5LbKf1qGHQfizp8bPb/ABC0LV36iLU/DxjDe2+CZdv12t9DQB6DRXndh468SaLrGnaT8RfDFrpI1K5SzstU0y/+1WUk7A7Y33okkTMRhcqwJ4yK9EoAKKKKACiiigAooooAK5bxf8PvCfim6W/1PSlj1WMYh1Szka2vYcdNs8ZDgcnjOD0IIrqaKAPOG0r4oeFMtoetWnjbTIwAlhrJFtfqAOi3ca7JD/10jBPd88njviZ+0tongF9Ltde8I+IrHUp7sR3tjdQBGigCnfNFKpaKcBtoAV+cnO2veK80+LHwQ8BfE/WINW8WWuoTXdvbC2haG9eNUTczcKPlzljzjnj0oAzvjR4k0Pxd+zZrmv8Ah3UoNQ066tYmimiP/TaPKkdVYdCpwQeCK9cHQV8zfED4HeHPhf8ACbxbfeEfEHia3tbi3jFzpk93HLaTHzo8MVMe4MOMMGB4xyOK+mR0FABRRRQAUUUUAFFFFABRRRQAV5vaf8nPal/2Jdn/AOltzXpFeb2n/Jz2pf8AYl2f/pbc0AekUUUUAFFFFABRRRQAUUUUAFFFFABRXi3ir9pLwPo3ja88I6Zo3ijxXqNmm64Ph+yju44yDhlJ8wHKkgHAwCcZzxVf/hpHTP8Aok3xa/8ACdX/AOO0Ae40V4d/w0jpn/RJvi1/4Tq//HaP+GkdM/6JN8Wv/CdX/wCO0Ae40V4XN+0tpEMLzTfCr4sRxopZ3fw8gVQOSSTLwK7n4KfFLw/8WvDN34g8OWeqWtra3rWbpfxRpIXCI5ICO4xhx3znPFAHd0UUUAFFFFABRRRQAVxHxM/5Gr4b/wDY0P8A+mvUK7euI+Jn/I1fDf8A7Gh//TXqFAHb0UUUAFFFFABRRRQAUUUUAFFFFABXGfGT/kUbH/sZNB/9O1pXZ1xnxk/5FGx/7GTQf/TtaUAdnRRRQBw2q/8AJfPDf/Yrat/6VadXc1w2q/8AJfPDf/Yrat/6VadXc0AFFFZOr+JNE0m5FtqF+kM2zeU2sxVfU4BwPrUylGKvJ2JlOMFeTsa1FU7XVNPurtrW2uo5pRCk+E5BjbO1gehBx2rNj8YeHpJZI1vpN8SF5AbaUbFAJycrxwDSdWC3aJdWmt5I3qKydF8R6JrE7QadfpNMqeYYyrK23ONwDAZHuKavijQW1JtP/tFFuVmMBVkZR5g/h3EYz7Zpe1hZPmQe2p2T5lr5mxRTJJY40d5JFVUXcxJ+6PU022uYLm3huIJUkimQPGwPDKRkEfhV3Rd1sS0UUUxnn3xJ/wCSmfC3/sNXv/pru69Brz74k/8AJTPhb/2Gr3/013deg0AFFFFABRRVW21LTrm9uLG3v7Wa6tiFuII5laSIkAgMoOV4IPPYigDzn4/6PpniC4+H2jaxaJd2N14sVJomJG4fYL0ggjBBBAIIIIIBFWz8OvEGm4Twr8UPE2mWyn5LS/WHUokH90NMplx9ZD7YqT4vf8jF8NP+xuX/ANN99XoNAHCSWXxetl2weIvBOojsZ9FubZse5W5cE/QCqXmfHb/nz+G//gVe/wDxuvSKKAPPbYfG2ViLlvh7aLxho1vLg/kTH/On3Xhn4m6jtF58TrPTVz8y6N4eSIkem64ln/MAV39FAHhHxU+Huk6KPCWvXepa1r+uJ4t0mNdQ1W9aV0VrpNwjjXbFHnH8CL/Ovd684+Pv/IF8K/8AY4aP/wClaV6PQAUUUUAeZ6JdW8/ijUIdQvrfI1eaNPN12SGUAP8AKqwDhhngc806+tBZz+NTBeagP7Oska13XsreWXgYseW55556dq9ENrbeZ5n2eHfnO7YM59c1IY4zvzGh3jD8fe+vrXEsJpZv8PJnAsHpZvq+nk/+H+RleFtW0/UdLtktdStbyeO3jMwjnWRlO0fewcjnPWteo4YIISTDDHGT12qBmpK64JqKTO2CailIKKKKooKKKrSahYR6gmnSX1sl66eYlu0qiRlyRuC5yRkHn2oA4L9pj/khvif/AK4R/wDo5K9GHQV5z+0x/wAkN8T/APXCP/0clejDoKACiiigAoqDULy20+ylvLyUQ28S7pHIOFH4VBpOr6Zq0bSabfQ3IXG8I3zLnpkdR+NTzRvy31J5483LfUvUVHJPDHJFHJKiPKSsaswBcgZIHrwCakqirhRRRQAV5vaf8nPal/2Jdn/6W3NekV5BrVx4lt/2l71vDek6TqMp8G2nmrqGpyWaqv225wVKQS7jnsQPrQB6/RXGf2l8U/8AoTfBn/hV3P8A8r6P7S+Kf/Qm+DP/AAq7n/5X0AdnRXGf2l8U/wDoTfBn/hV3P/yvo/tL4p/9Cb4M/wDCruf/AJX0AdnRXGf2l8U/+hN8Gf8AhV3P/wAr6P7S+Kf/AEJvgz/wq7n/AOV9AHZ0Vxn9pfFP/oTfBn/hV3P/AMr6+VLz4j/tKW/x08SaZ4T0661eC31B1k0zy2vbCH/ZFw6Rsqjscp6Y7UAfb1eA/FLx54k+IXi+6+EXwjuzb3MB2+JPEO3MOnRHhoo2HWU8jjBBBAIIZl5z45+O/jVD8NPDfh+/0bQ/C3iLxhqa6QZLW/eZohJgdlxESSASGkIBOMHGLHwy8EftGfDrwpb+G/DOm/CeG1iy0ksjXjTTyHrJI3G5j+AHQAAAUAZnwS8FaH8Pv2y9Y8LeHopEsrXwap3SOXeV2kty7sT3JyeOB0AAr6sr4r0Zvjr/AMNba01tH4D/AOE0/wCEcX7SHNz9g+y74cbcHf5mdnXjrXsXmftX/wDPD4S/ne/40Ae5UkjrGjSSMqIoJZmOAAO5rw7zP2r/APnh8Jfzvf8AGuB+IM3xq8V+OvC/wg+I+qeGtG0rxOZpZ5vDSSmWWGBC7RM0p+UMQOg+uRkEA6DxLr+u/tC+JrnwX4HvbnTPh1p83k+INdi4OpkHm2t2HVSBywOCHyRjAftf2cdD0vwzcfEHQNEs0s9OsfFHk28KdFUWNp36knqSeSSSa9H8KeH9H8LeH7PQNAsIrHTrOMRwwxjgAdyepJ6knJJ5NcV8GP8AkaPif/2Nzf8ApDaUAek0UVh+J9WvLK70zTdNjtzeajK6I8+fLjVELMSByeBgDI61M5qCuyJzUFdm5RWHb6re2d3ZadrMVu13eSTCKS1J8vai7skNypI7c/WsOPx2zTyXaabczaeNNivisar5kSlnDsxLAEAKOBz/AEyliIR3ZlLE04/E/wCtzuKK5i28caPceI/7FhEjsZjAJwybDIF3EY3bsdt2MZ4rp60hUjO/K7mlOrCpfld7BXEfEz/kavhv/wBjQ/8A6a9Qrt64j4mf8jV8N/8AsaH/APTXqFWaHb0UUUAFFFFABRRRQAUUUUAFFFFABXGfGT/kUbH/ALGTQf8A07WldnXGfGT/AJFGx/7GTQf/AE7WlAHZ0UUUAcNqv/JfPDf/AGK2rf8ApVp1dzXDar/yXzw3/wBitq3/AKVadXc0AFcde6frmm+INbvNO0uHU4dXjj5M6xGFkTZhs/eU9ePcYrsaDWdSmp21tYzq0lUtra3/AAxwOhaPr3hnUo2g0sanGNMgtWeO5SMB0LFsbucc1qXukahNdeKJVgAGo2EcNuN4+ZxG4I9uWHNVtC8XXlxeyJqq2NiESWSW0kEkdxAqAnI3DEoIBJK4A96uL420vpJa30LskMsSSIgaWKVwiyLhvu5IznBHpXJT9jy25tP+B/wThp+w5Lc2mv5f8HqP8LeGV042eoXt5eXV/FZLbgTOpSEYBZVCgDqOpyeOtYNxoPiC4t9c0QabElrqmqtdC9edSI48ochByW+Tjp1rodQ8W2NnetZ/Y7+4nF39kCQxqS0nliTjLDjBAye/tzS/8Jbpoiurhre+WztllJu/JzE5jOGCkHrngZAzg4zVSjQa5ea1v6dy5Qw7XJzWte/5O5yl54V1688RXl02n20UNw13DK4kT97HIhETMPvHDKpIJ4OMAc1Wm8LeIGh0sw6FbQy2FtahHWaLeHikLOM843H5hjA+Y5Paupj8e6JJYPdRpcsUnSBov3YKs6llJYtsAIB5LdeOvFdHpt3Hf2EF5EkiJMgdVkXDAH1FZxw1Co3yy/r7jOGFw9Rvlk3f0/yLA6elFFFeiemeY/GayutQ8cfDOzstXvNInk1q72XlokTyxY026J2iVHQ5AIOVPBOMHBGx/wAIZ4o/6K54w/8AALSf/kKqnxJ/5KZ8Lf8AsNXv/pru69BoA4n/AIQzxR/0Vzxh/wCAWk//ACFR/wAIZ4o/6K54w/8AALSf/kKu2ooA4n/hDPFH/RXPGH/gFpP/AMhV8x+O/wBm34s+Jvj3q/iTTfEjWVr50Mlv4hvbmOK6lKwxqWVLVF2sCCo+VBheueT9pUUAfPHiHwv4t8C6N4FXxB8RNV8WX8XiN5I5bu3iVImGm35BXIaRj/vuw9hXplj4g1bTE0yTUb+PUob7SnvWV40ikiZIw/3lwu05I5HHqaq/GeGK51n4c206B4pfFYR1P8SnTr4EflXW2fhfQLOKeKDS4FWeLyZS2WLR/wB3JJOPauerTqSknF2OatTqyknB2/rsc1/wnGo3htY7LTbeKY6jBbTrLK4G2VN64zGDyNwJxxgEbgciST4grG+oqdL3C1gmmiKznEojkCEZ2be+cqWFdBH4V8PxxGOPTIkUmNjhmBLJna2c5yMnnrTH8I+HGDA6VCN28HDMOH+8OD0J5x0zzWPs8V/Mv6+Rh7LF2+NX/ryMqPxneLqQtLvRFhVb6CzldbvfsaZQyEDaM9RnpjtntSl+I6xx6g39kFmtYPtEQWckSp54iPzbMZyQcqWB6ZrrZND0mSZ5pLNGkeeO4YknmSMAI3XsAKpnwf4Z8sRjSIFTkYUsOCwYrwemQDjoD0pyp4n7Ml1/4HQcqeL+zNdf+B0PK/jrqGvam2kaLMsekqviHQ2Se2mWWa3eS7wHXfGUYjHRgQNo+9kgd3/whnij/ornjD/wC0n/AOQqxfj7YWf2fwrqXkKLv/hLNHiMoyCU+1ocH15r1CumnGUVaTuddOMopqTucT/whnij/ornjD/wC0n/AOQqP+EM8Uf9Fc8Yf+AWk/8AyFXbUVoaHE/8IZ4o/wCiueMP/ALSf/kKj/hDPFH/AEVzxh/4BaT/APIVdtRQBxP/AAhnij/ornjD/wAAtJ/+QqP+EM8Uf9Fc8Yf+AWk//IVdtRQBxP8Awhnij/ornjD/AMAtJ/8AkKj/AIQzxR/0Vzxh/wCAWk//ACFXbUUAcT/whnij/ornjD/wC0n/AOQq+ff2lP2f/iZ4+8f6FLo/iG41m2gsikup6zJa24tW8xjtC20KMexzsY5PWvriigD5h8S/Dbx34J+A/ig+LPitrHihTbxBbOWNWhT96n/LSXfKfbDIPUGvp4dBXnP7TH/JDfE//XCP/wBHJXow6CgAorK17V/7JudN86Nfs13c/Z5JS2PKYqShx6EjH4isHTPG7XiWYbTXjnnmk3RAl2WBYRKJAAOSVdAF9Wx2rGVenGXK3qYTxFOEuWT1/r/M2vHFldal4T1Gxs4/NuJodsabgMnI7niub1fTtf1KfUdUj0X7O501bKK3kuVDzkyhmYlGGABnA3c5962T400dbXzmjvg/2hbbyBbky+YyblG0eo/wqK98baSsl7Z2sjm9gjm8sSRN5bSxoWZM+oxz09AawqujN3cvy8znrOhUd3P8vP8AzOb07w1q0V3p811oZmjsdQlkhjMsY8uJ0BQL83yhXGSB07ZrT+Hul67purzS3+nva21zbjzFEwYCcMSWOXZjkHG4kk45xxV/RvG2n3Gipdagk9vcpaQTzJ9nYBzJgDyxyWBbgf5NaFh4o0y8vobFRcRXUs0kPkyxbWR40DsG/wCAkEHoailToJxlGX5ehnSpYdSjKM9fl6dvkbdFc3F410WU2YhW8lN4rNGscBYhVkMZJA5+8D0ycc1Pa+LNFudeOixTyG58x4gTGdjSIMsob1HP5V1qvTf2kdqxFJ295G7Xm9p/yc9qX/Yl2f8A6W3NekV5vaf8nPal/wBiXZ/+ltzWpsekUUUUAFFFFABRRRQAUUUUAfPn7Xv/ACNXwd/7HS1/9DSvoOvnz9r3/kavg7/2Olr/AOhpX0HQB87+Hf8Ak/3xJ/2Jyf8Aoy2r6Ir538O/8n++JP8AsTk/9GW1fRFABXhXxX/5O2+EP/Xpqn/omvda8K+K/wDydt8If+vTVP8A0TQB7rXm3wY/5Gj4n/8AY3N/6Q2lek14l4B8A+CfFXjf4l3/AIm8J6LrF3F4pMMc17ZRzOqCytSFBYEgZYnHuaAPbSR61n65o9prEMSXJmjkhfzIZoJDHJE2MZVh7Ej0rzXxL4D8G+GNa0Wbw94U8P6RHM8y3ckWlBomAj+USLHgtyeOeCc1zVh8NPCOpanokF14K0lzeXV6Lu+m0eJ3uVQK8bgyxkqDyo3c9eTwa46mIXO6co3X/Df5nDUxS9o6co3Wn426fPfyPX28IaQYYkDXiyxzNMbgXDea7uu1yzdTkAA/pioF8D6KsKw777yxapaMq3BUPErFtrYxkHcc/wBK8hT4aeEbqJfs3gDQUvmt7mS8tn8PQCO0dOYlVjHzuxt5LZBzxxU+n/DXwbd6pEknw68O29res97A58PwsYYEEo8sgJkkkQnH3sMQDWSqUG/g/AxVXDya/d/gv67HtVtodlbarJqFu9zC0jb5IUnZYXfaF3FBwTgD24z15rUr54tfhz4NbQ7ox/D7w3PNFPbrJdf2PBsVH3eYy/uAVwQMhlbbmtPw78KPBN9rGlw3XgjwsLb7LLNM0WhwgTbZQFBLxKRkdcAZxkdc1rTxNPRRi9f87G1PF09FGL1/zsdNP8evhfZ+Ob7wXq/iNNH1eyuDbyLfxtFCWAzkS/cAwf4iKv8Aj28s9Q1/4aXdhdQXdvJ4ncpLBIHRh/ZeodCODXll3+yB4D1Px5qniDVNQuotMupvMtdH0yFLWGBcAbSwySO/yhK7W68A+EPAGq/DnTPCOh22l27+KHMhjyzykaXqHLuxLMfqTXYdx2/xE1K90zTdPexuZ7dp9RigkaCFZZCjBshVKnJ4GOKxtO8X6hbadNPLHNqccmpCys3li8qYnaS/mJGpI2lSMBcn0rt76xtb7yPtUIl8iZZ4sk/LIvRvwzVWfQtJne5eWxjZrmRZJTkjLqMKw5+VgO4wa5alKq5uUZHHUo1nUcoSt/X3HO3Pja8ji8xdAeMx6adQnjuJzE6IshRlClOTxkZxnNWZPGDC73R6aHsFv4rB5jPiQSOFIIj28gFgOufarMvhDSZNYjupLa3azjshapaeV8gxJv3f/WxzWi+h6O+ojUW062N0GDCTYM7h0b03DseoqYwxHWX9fd/XkTGGJ6y/r7v68jmdJ8XazqsmhTR6PbWltqNzLGRJdFnIjSTdwE45Xj1xjjOaq6Z44vBpUJg0p7rZpR1KWS4vQG2CR1K5EfzN8uRwP057GLRNKjs7e0SyjENtKZoV5/duSSWB6g5Y/nUMHhvRIIWhi0+NY2tTZkBm/wBSWLFOvTLE+vNL2WI09/8ArTy9RexxOnv/ANaeXe5knxizXyxw6aGtWvrey81rja++VA2dm3oAw78/rWi9/dDx3Fpgl/0RtMacx7R98SKoOcZ6E8ZxVK88HW9x4httTE0UcNvLFKsSWyhy0Ywo8zOSOnUE8YzWtqmg6Vqd0l1e2pkmRPLV1ldCFznHykd6uMa7vzd/w+RcY4hp83fT0+Rk6n4uFn4oi0YWaSpJNHb+csrZWR1LKCAhUdOhbPOcYqjP4+WOyln/ALIlaS2gDXcQmyYZjN5KxdOTuDHPoBwc1vDwvoHnef8A2XAZhsxI2SwKY2nJPUYHPWotG8NWlna6gl95N/NqMplvHaBVWQ9ht5wB+PJJ71LjiL/F3+XYlwxV37y1v8u39evkZdv4w1G4utPsl8OyxXd5PPEBcSvEoESq28bowxUhj/CDkYpvxk/5FGx/7GTQf/TtaV0NnoOj2ctvLbWEUUlu0jxMuchnADk+pIA5Oelc98ZP+RRsf+xk0H/07Wlb0o1Enzu50UY1Ip+0d/8Ahv8AM7OiiitTY4bVf+S+eG/+xW1b/wBKtOrua4bVf+S+eG/+xW1b/wBKtOruaACkYBlKnoRg0tFAHPR+EdO82Nri6v7yKGOSOCG4n3rEsgKvg43HIOPmJx2qNvBOkPaywyy3sjPBHbxzNN+8hjjYMioQOMMAcnJPfNdLRWPsKf8AKY/VqX8pg2HhXTrO9S8Wa7lnW6a7Lyy7i0jR+WSeOmO3Y9OOKP8AhFNL/wBJjaS7a1uBKDamc+Shl5cqo9Tz1OO2K3qKfsadrWD2FO1uUwD4VtTYta/2lqZ3SBy5nB4AwFKkbCuOxU5PJyea1NG0620nS7fTbMMILdNibmyce5q3RVRpwi7pFRpQi7pBRRRVmh598Sf+SmfC3/sNXv8A6a7uvQa8++JP/JTPhb/2Gr3/ANNd3XoNABRRRQAUUUUAecfHG7ttMn8Ca1qE6Wum6d4qimvbqU7YreNrO6iV3boq+ZJGuTxlhXokEsU8KTQyJLFIoZHRgVYHoQR1FFxDDcQPb3EMc0MilXjkUMrA9QQeCK4OT4P+B4riW40Wz1Hw5NIcltD1S4sEB/65xOI/wK49qAO/orz0/DzxJDn7D8XvGsa54W4jsJwB6Za3z+ZJqL/hB/iJ/wBFo1n/AMElh/8AGqAPR6K86TwJ46ckXXxl8RMv/THS9PjP5+SalX4WwXKldf8AHHjnXEP/ACzm1g2qfQraLDuHs2aAKHx2vrO4ufBvhyC6hl1m48UabdRWKODM0MM4kll2ddiorEt0GK9PrnvB/gjwl4RR/wDhHNAstPklGJZ0TdPL/vytl3/EmuhoAKKKKACiiigAooooAKKjuriC1t5Lm5mjggjUtJJIwVUUdSSeAK88m+JsmvyvZfDHQpfFUmSjaq0n2fSYW75uCCZSOu2FXzkDIzkAHozsqIXdgqqMkk4AFfJv7Uvx98WeH7uzvPhVr1he6Ap+y319BYC4ijvPmYRidgY3JQZ2rkrtOeor2yP4bXniOUXfxN1+TxECQ66NbK1tpUJ9DECWn+szMDz8q5xXbTaDok1nZ2UukWD2tjMk9pCbddkEifcZFxhSM8EdKAPly70f4v6p+z/4g8XfFrxTfeZLbRtY6HHDHbCJTLHh5xGqkt1xG2QOCeeF+tB0Fec/tMf8kN8T/wDXCP8A9HJXow6CgDL8U6Jb+INGl0u5llhR2VhJEQGUqwIIz9Ky5vBGlSX1xdefdp52n/YNiOAEXaq7hx97aoHp7V1FFZTo05u8kYzoU5vmktTlrDwRp9ncwzx3l2zR3MVyVIjCs8aso4VRgYbt6D3zMfB+nfbL+4jmmRb3zWkj2RkK8i7WYMV3D1xnGSeOa6OiksPTStYSw1JK3Kcy/gzTZIIopLi6xFYwWaMrAMohbcjjj72fw9qf/wAIjbeZHdLqN8uoLdNcm8BTzGZk2MuNu3btAGMcYFdHRR9Xp9g+rUuxyR8B6cdItNKa9u2tbbdhSIyW3SFz8xUspycZUg4/OtHT/DFjY61LqdvJKDLK8xhKRlRI/wB5g23f743Y5NblFCw9NNNL+kEcNSi00tv0CvN7T/k57Uv+xLs//S25r0ivN7T/AJOe1L/sS7P/ANLbmtjc9IooooAKKKKACiiigAooooA+fP2vf+Rq+Dv/AGOlr/6GlfQTsqIXdgqqMkk4AFfPf7YckcPiX4QTTSLHGnjK2Z3Y4CgOmST2FU/Fmu69+0J4mu/Avge+utJ+HthJt1vxLbk/8TIj71rbngFTk5PIOAT8uA4Bx9v4y8Sal+014m+J/wAKfBN1480VNNTQ3niuBbRGUeU7FXYHdjYOg5DA9CM+h/8AC3Pjp/0bref+D6P/AON17V4T8O6L4U8P2mg+HtOg0/TbRNsUEK4A7kn1YnJJPJJJNalAHgP/AAtz46f9G63n/g+j/wDjdeXePPiD8Urz4/fD7WL/AODtxY6zYwXy2GlHVUY3wePDkPswmwc8g5r7Pr5/+N+p6fo37UXwp1TVr2Cysbax1WSe4ncIkaiDkkmgCvq3xs+M+k6XdapqX7Ptxa2VpC89xNJr8YWONQSzH930ABrc/ZD8Q33jTwr4q8cXmjtpUev+I5bq3hMnmKUW3giJVsDcN0bDOByCO1cvDDrX7SviRbm6S70f4TaVdboI8skniKRWyGYHGIRtHGM/McHd9z6N06ztNOsILCwtorW0t41ihhiQKkaKMBQBwABQBPRRRQAUUUUAFFFFABXEfEz/AJGr4b/9jQ//AKa9Qrt64j4mf8jV8N/+xof/ANNeoUAdvRRRQAUUUUAFFFFABRRRQAUUUUAFcZ8ZP+RRsf8AsZNB/wDTtaV2dcZ8ZP8AkUbH/sZNB/8ATtaUAdnRRRQBw2q/8l88N/8AYrat/wClWnV3NcNqv/JfPDf/AGK2rf8ApVp1dzQAUUUUAFFFFABRRRQAUUUUAFFFFAHn3xJ/5KZ8Lf8AsNXv/pru69Brz74k/wDJTPhb/wBhq9/9Nd3XoNABRRRQAUUUUAFFFFABRRRQAUUUUAFFFFABRRRQAUVT1nVdL0XTpdS1jUbTTrKIZkuLqZYo0+rMQBXmOufFTV9Us438A+G7iazuJhbxa7qtvJFaFzyPJgA8+44BxgIhOPn60pSUVdilJRV29D1LUr6x0yxlvtSvLeytIVLSz3EojjjUd2ZiAB9a8+k+I2qeJn+y/DHw7JrUbZU67f7rbS4jzyrEeZcYx/yyUqcj5xyRiR+HvD5ii8QfEqbxD4tu4pPMH9paZJFp9o4x80VoB5afeADPvbg/N1r1DTNdsb6+Wwjjuobk232nyp7domEe8pkhhxyDx6c1CrU27J6mar02+VS1OOt/hgmtXK6h8Sdan8X3AcSR2EieRpdswzjZbAkPjON0pkP0zXocUccUaxxIsaKMKqjAA9AKdRWhqFFFFAHnP7TH/JDfE/8A1wj/APRyV6MOgrzn9pj/AJIb4n/64R/+jkr0YdBQAUUUUAFFFFABRRRQAUUUUAFeb2n/ACc9qX/Yl2f/AKW3NekV5vaf8nPal/2Jdn/6W3NAHpFFFFABRRRQAUUUUAFFFcx48vJ4JNHs11CTTrW8vDFc3MbBWVQjMFDH7uSBzUVJqEeZmdWoqceZnH/tJ/BtfjJoGlaX/wAJEdDbTrprgSiz+0B8rt27d6Y7HOfwrlPCnwP+K3hXQLXQfDvx8Om6ZaLtht4fCNsFXJyTzJkkkkknJJJJNdp/bWoW2rLYQ6xPdabb69aQx3byhjIjxO0kTOMBgCB+dbvxE1eYWllpulXlzHPeSOTNZRtK6JGuTgJk8sUH0JrBYuLi5W2OdYyDhKVtv+GOC/4Vf8cP+jjbj/wkrX/45R/wq/44f9HG3H/hJWv/AMcrpbvWNR1yTRGs21ctPp0zzwWMywOJ0dVbdvIGA24evI4rY1a817TfAVk2pXKw37yww3t2mP8AR0dwGk9MhSOemeaFiou7SdlrcccXF8zSdkr3/r1OC/4Vf8cP+jjbj/wkrX/45WFrH7NeteMvFWj6t8Uvipc+L7LTN22yXRY7IurYJXfHIcAkLnjJAwCOteqzaouhGNbHxAdWikvLWOcXUgl+zxyOVZ964xkdAemM96zrzxLqV74hsfsd9aQRx31/boxdvIkWOJSpcBvmwSfSiWLhHff/AINhSxkI77/8Gx6Bp1laabp9vp+n20NraW0axQQRIFSNFGFVQOAABjFT15/b+N9YvJ7D7LpdsEe1guJ0klVC4kYqdhZhgDBxw2eBxXoFa0q0at+U2o14Vb8oUUUVqbBRRRQAUUUUAFcR8TP+Rq+G/wD2ND/+mvUK7euI+Jn/ACNXw3/7Gh//AE16hQB29FFFABRRRQAUUUUAFFFFABRRRQAVxnxk/wCRRsf+xk0H/wBO1pXZ1xnxk/5FGx/7GTQf/TtaUAdnRRRQBw2q/wDJfPDf/Yrat/6VadXc1w2q/wDJfPDf/Yrat/6VadXc0AFFFFABRRRQAUUUUAFFFFABRRRQB598Sf8Akpnwt/7DV7/6a7uvQa8++JP/ACUz4W/9hq9/9Nd3XoNABRRRQAUUUUAYvjPxRpXhLRxqerNcFHlWCCC2gaae5mb7sccagl2ODwOwJOACa5YeI/ilqzFtG+Hum6TbMAY5df1kJLg9zDbpLg/7JcfUVQ/aC0a08QTfD3SL57mOC48Wx5e2uHhlQrYXrKyuhDKQQCCD2rSg8L/EnSCw0f4kW+qQKAIoPEGjJM+B2M1u8Jz/ALRVvoaAA6V8YrjmXxp4PseeFtvD08mPbc91z9cCoP8AhF/i3/0VjTf/AAlk/wDj1OGofGy3YiXwt4EvhnhodcuYSR6kNbNj6ZP1pP8AhIfjH/0TPw1/4Vjf/IlADovDvxchJYfEzQ7n/Zn8MYH/AI5cA1IzfGbT13GPwL4hXuqG60x8e2ftAJ+u2ohrnxll+VPh74Ttj/el8USuP/HbSpLeH4zagjJeX/gfw8D0e1t7nUnx7b2gVT9Qw9qAJtH+IU8es2Gh+M/CupeFtQv38q0lkkS5sbiTBIjS4jOA5wcLIqEngZ4ru6+fPjZ4abw3pXhrxj4z8cazrk+m+J9LkMkwW3tLaMXKl2W3hUAnbnlt7emK7s+JPH/jBli8H6CfDOkvkPrXiCAicjn5oLLIY9sGYp1+62MEA7bxHr+ieG9MfVPEGrWWl2SHBnu5liTPYZY8njp1rhx4y8Y+MAI/h/4cbTtOc7Tr3iGF4Uxx80FpxLLweC/lrnucEVp+GvhnoOm6smv61NeeKPEQ5/tPV3ErRHOT5MeBHAPaNVOOpPWu3oA4LQ/hfpK6lDrni6+u/GOuxkOl1qmDBbvxzb2w/dQ9BggFvVjyTuePNFu9c02zgsxCzwXsdwyyzPEGVQcgOgJB56iuhoqJwU4uLIqU1Ui4y2ZyGo+HtSvvAmoaEsFraTzkeUDfS3C43KSWd13DoeMGrOp6brcfjP8AtzTIbC4jbTltGS4uGjIIkZ88I3HIrpqKz9hH8vwv/mZfVo/l+F/8xI95jXzAA+BuAOQD7Gloorc6AooooA5f4seG5/F3w317w5aSJHdXtm6WzOcKJh80e7/Z3qufbNRfDbxzp3jDT3hMb6dr1iFj1bR7n5biylwMhlP3kPVXHysCCPQdbXMeNfAXhnxdJBdapZyxajbf8eupWU7215B14SaMhwOfuklT3FAHT0V53/Y3xW8Pxn+xfFekeLIA3y2+v2v2W4C/9fNuNpP1h59RTl8deMNNtyfEnwq10OvWTQ7u31CE/QF45f8AyH+JoA9Corg4vit4eWNW1LRvGOlE9RdeF77C/V0iZB/31Vef44fCe3YJdeONMtHIyEud8TY9drqDQB6JRXm//C9/g9/0UPQj9J//AK1XU+Lngmcf8S+41rVD2GnaBfXX6xwkD8TQB3dFefr8Sru6leHSPhr48vnA+VpNPis0b/gVzLHj8s+1Rx3Xxj1qQxppHhXwjatkefcXUmp3KjsfKRYowf8AtowB/vUAd3qmoWOl6fPqOp3lvZWduheaeeQJHGvqzHgCvO/hhLJ4u+IGu/EyG2mg0S60620rRHnjaOS7gieWV7nYwBCO8oCZ5IXOBkVc0/4W6bdahb6t431jUfGmpW7b4v7SKrZwt2MdpGBECOzMGbP8XAx6DQAUUUUAFFFFABRRRQAVFd21vdwNb3UEU8LfejkQMp+oNS0UNXBq5RfR9JeySxbTLJrVG3rCYF2K3PIXGM8n86dZaXpti4ez0+0tmAKgxQqpwcEjgew/KrlFTyRvexPJG97FeGxsoZvOhtII5Pm+dYwD8xy3PuQCfWppo45onhmjSSNwVZHGQwPUEd6dRTsh2RSj0nSo7OSzj02zS2kOZIVgUIx9SMYPQU06Lo7RiI6VYmMEkKYFwCQAeMdwAPwFX6KXJHsT7OPYqy6bp8rwPJY2rtb48ktEpMeOm3jj8KtUUU0kikktgooopjCiiigAooooAK4j4mf8jV8N/wDsaH/9NeoV29cR8TP+Rq+G/wD2ND/+mvUKAO3ooooAKKKKACiiigAooooAKKKKACuM+Mn/ACKNj/2Mmg/+na0rs64z4yf8ijY/9jJoP/p2tKAOzooooA4bVf8Akvnhv/sVtW/9KtOrua4bVf8Akvnhv/sVtW/9KtOruaACiiigAooooAKKKKACiiigAooooA8++JP/ACUz4W/9hq9/9Nd3XoNeYfGiHVrjxt8NIdD1C00/UG1q78m4urRrmJP+JbdbsxrJGWyuQPmGCQecYOr/AGP8WP8AofvCf/hJzf8AydQB3VFcL/Y/xY/6H7wn/wCEnN/8nUf2P8WP+h+8J/8AhJzf/J1AHdUisrZ2kHBwcetcN/Y/xY/6H7wn/wCEnN/8nV8tTfCv9pC4+N3iTVvC+qz6NDd6hI0urCZrGzuMfx/Z98jFT2GH9c96APp74vf8jF8NP+xuX/0331eg14N4rtfH/h3RvAEnjfxNpniHVLbxKZEmt9O+zjK6bfnDkNh+g5Cp/WvR9N8Satb/ANnNrC2dxFqNg95E1spiaMogdlYMxBGG4bI6c1lOtGDszGdeMJJSOyorh38eSTi1XT9KMsr38VrMpuI2Ch13LtZWwSRnvgFTntmzP48sYZ9Rhkspd1lDJMNs0b+YqOEYfKx2nJ6Hmo+tUu5n9co9zr6K5KDxsjaglncaLfWxN3HaSO7IRG8qgx5wxzkHt071Dc/EHT7f+0RJZTbrKPzdqyxuXTzREfuk7SGI+U80fWqVr3H9bo2u5GX8fv8AkC+Ff+xw0f8A9K0r0evFfjJ4g1C/vfD2lz6PJZww+JtDm3SSIXUtdjqAT1x0HQg56ivaq1hNTV0bU6kaivEKKKKssKKKKACiiigAooooAKKKKACiiigAooooAKKKKACiiigAooooAKKKKACiiigAooooAKKKKACiiigAooooAKKKKACiiigAooooAKKKKACiiigAooooAK4j4mf8jV8N/wDsaH/9NeoV29cR8TP+Rq+G/wD2ND/+mvUKAO3ooooAKKKKACiiigAooooAKKKKACuM+Mn/ACKNj/2Mmg/+na0rs64z4yf8ijY/9jJoP/p2tKAOzooooA4bVf8Akvnhv/sVtW/9KtOrua4bVf8Akvnhv/sVtW/9KtOruaACiiigAooooAKKKKACiiigAooooA8++JP/ACUz4W/9hq9/9Nd3XoNeffEn/kpnwt/7DV7/AOmu7r0GgAooooAKKKKAPOfjXbRXmq/DuznBMU/iry3AODtbTr4H+ddLbeDtDhglieK4uPMtjabp7h3ZISMbEyflH0xXOfGaWK31j4c3VxIkNvF4uj8yVztRN1leIuSeBl3VR6lgOpr0SolThJ3kjOVKE3eSuc6vg3RVV/8Aj8LvJFKZTdOX3xghW3ZyDgkfTFRP4F0BkKbLsKVkjwLl8BHOWQDOMZ5+tdPRUfV6X8qI+rUf5UY83hrS5rmS4kjkLyXUN03znHmRABPwwBxWcfAPh3yFhEd2EVDEB9pc/u94cJyfuhgCB611NFN0Kb3ihvD0pbxR5X8fNMtVHhfVlEi3LeK9GhchyFdReKRlehIycH3r1SvNvj5JG1j4Ps1dTcz+L9KaKEH55AlwruVHUhVBY+gBJr0mtEktjVRS2CiiimMKKKKACiiigAooooAKKKKACiiigAooooAKKKKACiiigAooooAKKKKACiiigAooooAKKKKACiiigAooooAKKKKACiiigAooooAKKKKACiiigAooooAK4j4mf8jV8N/+xof/ANNeoV29cR8TP+Rq+G//AGND/wDpr1CgDt6KKKACiiigAooooAKKKKACiiigArjPjJ/yKNj/ANjJoP8A6drSuzrjPjJ/yKNj/wBjJoP/AKdrSgDs6KKKAOG1X/kvnhv/ALFbVv8A0q06u5rhtV/5L54b/wCxW1b/ANKtOruaACiiigAooooAKKKKACiiigAooooA8++JP/JTPhb/ANhq9/8ATXd16DXn3xJ/5KZ8Lf8AsNXv/pru69BoAKKKKACiiigCprOl6brWmzaZq9ha6hYzrtlt7mJZI3HoVPBrh4PhVa6SMeEfGPi/w2gHywQal9rtx7CK7WVVH+7tPvXodFAHn9v4W+J1s7GP4qwXSnot74chfA+sUkdWP7J+K/8A0PfhE/8Acpz/APyfXcUUAcLJofxUmBV/iF4dh9DbeFnVv/H7tx+lV4vAvjK6Qx618XfEUsZ6rp1hZ2ZYehbynYfVSD716FRQByPhL4c+FPDOptq9nZ3N5q7LsOpaneS3t0FxghZZmZlB7hcA9666iigAooooAKKKKACiiigAooooAKKKKACiiigAooooAKKKKACiiigAooooAKKKKACiiigAooooAKKKKACiiigAooooAKKKKACiiigAooooAKKKKACiiigAooooAK4j4mf8jV8N/wDsaH/9NeoV29cR8TP+Rq+G/wD2ND/+mvUKAO3ooooAKKKKACiiigAooooAKKKKACuM+Mn/ACKNj/2Mmg/+na0rs64z4yf8ijY/9jJoP/p2tKAOzooooA4bVf8Akvnhv/sVtW/9KtOrua4bVf8Akvnhv/sVtW/9KtOruaACiiigAooooAKKKKACiiigAooooA8++JP/ACUz4W/9hq9/9Nd3XoNeffEn/kpnwt/7DV7/AOmu7r0GgAooooAKKKKACiiigAooooAKKKKACiiigAooooAKKKKACiiigAooooAKKKKACiiigAooooAKKKKACiiigAooooAKKKKACiiigAooooAKKKKACiiigAooooAKKKKACiiigAooooAKKKKACiiigAooooAK4j4mf8jV8N/+xof/ANNeoV29cR8TP+Rq+G//AGND/wDpr1CgDt6KKKACiiigAooooAKKKKACiiigArjPjJ/yKNj/ANjJoP8A6drSuzrjPjJ/yKNj/wBjJoP/AKdrSgDs6KKKAPN/GWuaLoHxw8M3mu6vp+lWz+GtViWa9uUhRnNzp5ChnIBOATj2Nb3/AAsn4df9D94V/wDBxb//ABdbuqaPpOqmM6ppdjfGPPl/abdZNmeuNwOM4H5VS/4RHwn/ANCxon/gBF/8TQBn/wDCyfh1/wBD94V/8HFv/wDF0f8ACyfh1/0P3hX/AMHFv/8AF1of8Ij4T/6FjRP/AAAi/wDiaP8AhEfCf/QsaJ/4ARf/ABNAGf8A8LJ+HX/Q/eFf/Bxb/wDxdH/Cyfh1/wBD94V/8HFv/wDF1of8Ij4T/wChY0T/AMAIv/iaP+ER8J/9Cxon/gBF/wDE0AZ//Cyfh1/0P3hX/wAHFv8A/F0f8LJ+HX/Q/eFf/Bxb/wDxdaH/AAiPhP8A6FjRP/ACL/4mj/hEfCf/AELGif8AgBF/8TQBn/8ACyfh1/0P3hX/AMHFv/8AF0f8LJ+HX/Q/eFf/AAcW/wD8XWh/wiPhP/oWNE/8AIv/AImj/hEfCf8A0LGif+AEX/xNAGf/AMLJ+HX/AEP3hX/wcW//AMXR/wALJ+HX/Q/eFf8AwcW//wAXWh/wiPhP/oWNE/8AACL/AOJo/wCER8J/9Cxon/gBF/8AE0Aef+K/FfhbX/ir8MbbQfEmjarPHrF67x2V9HMyr/Zl2MkIxIGSOa9arLsfDvh+wuku7HQtLtbhM7JYbSNHXIwcEDI4JH41qUAFFFFABRRRQAUUUUAFFFFABRRRQAUUUUAFFFFABRRRQAUUUUAFFFFABRRRQAUUUUAFFFFABRRRQAUUUUAFFFFABRRRQAUUUUAFFFFABRRRQAUUUUAFFFFABRRRQAUUUUAFFFFABRRRQAUUUUAFFFFABXn3xh1LT9J1r4eahqt/a2FnD4nbzbi5mWKNM6ZfgZZiAMkgfUivQaq6np2n6nAtvqVha3sKtvWO4hWRQ2CM4YEZwTz70Ac//wALJ+HX/Q/eFf8AwcW//wAXR/wsn4df9D94V/8ABxb/APxdaH/CI+E/+hY0T/wAi/8AiaP+ER8J/wDQsaJ/4ARf/E0AZ/8Awsn4df8AQ/eFf/Bxb/8AxdH/AAsn4df9D94V/wDBxb//ABdaH/CI+E/+hY0T/wAAIv8A4mj/AIRHwn/0LGif+AEX/wATQBn/APCyfh1/0P3hX/wcW/8A8XR/wsn4df8AQ/eFf/Bxb/8AxdaH/CI+E/8AoWNE/wDACL/4mj/hEfCf/QsaJ/4ARf8AxNAGf/wsn4df9D94V/8ABxb/APxdH/Cyfh1/0P3hX/wcW/8A8XWh/wAIj4T/AOhY0T/wAi/+Jo/4RHwn/wBCxon/AIARf/E0AZ//AAsn4df9D94V/wDBxb//ABdH/Cyfh1/0P3hX/wAHFv8A/F1of8Ij4T/6FjRP/ACL/wCJo/4RHwn/ANCxon/gBF/8TQBn/wDCyfh1/wBD94V/8HFv/wDF1y/xN8b+C9Y0HTNO0nxd4f1C9l8SaH5dva6lDLI+NVtWOFViTgAn6A13H/CI+E/+hY0T/wAAIv8A4mn2/hfwzbzx3Fv4d0iKaNg8ciWUasjA5BBAyCD3oA16KKKAP//Z&quot; alt=&quot;A diagram of data warehouse&#xa;&#xa;Description automatically generated&quot; data-image-width-mu=&quot;11.6911764705882&quot; data-image-height-mu=&quot;4.85294117647059&quot; data-from-ppt-online=&quot;true&quot; class=&quot;CID99cc0332-8d89-429c-83b2-ff9768ebf7d6&quot; style=&quot;color: rgb(0, 0, 0); font-family: &amp;quot;Times New Roman&amp;quot;; font-size: medium; font-style: normal; font-variant-ligatures: normal; font-variant-caps: normal; font-weight: 400; letter-spacing: normal; orphans: 2; text-align: start; text-indent: 0px; text-transform: none; widows: 2; word-spacing: 0px; -webkit-text-stroke-width: 0px; white-space: normal; text-decoration-thickness: initial; text-decoration-style: initial; text-decoration-color: initial;&quot;&gt;" style="text;whiteSpace=wrap;html=1;" parent="1" vertex="1">
          <mxGeometry x="90" y="630" width="40" height="40" as="geometry" />
        </mxCell>
        <mxCell id="jdwVhn9pci9fnTV9FCDL-4" value="Data Sources" style="rounded=0;whiteSpace=wrap;html=1;strokeWidth=2;fontSize=13;fontStyle=1;fontColor=#00994D;" parent="1" vertex="1">
          <mxGeometry x="90" y="960" width="100" height="180" as="geometry" />
        </mxCell>
        <mxCell id="jdwVhn9pci9fnTV9FCDL-5" value="" style="shape=cylinder3;whiteSpace=wrap;html=1;boundedLbl=1;backgroundOutline=1;size=15;strokeWidth=2;fontSize=13;fontStyle=1;fontColor=#00994D;" parent="1" vertex="1">
          <mxGeometry x="350" y="980" width="110" height="130" as="geometry" />
        </mxCell>
        <mxCell id="jdwVhn9pci9fnTV9FCDL-6" value="" style="endArrow=classic;html=1;rounded=0;entryX=0;entryY=0;entryDx=0;entryDy=40;entryPerimeter=0;strokeWidth=2;fontSize=13;fontStyle=1;fontColor=#00994D;" parent="1" target="jdwVhn9pci9fnTV9FCDL-5" edge="1">
          <mxGeometry width="50" height="50" relative="1" as="geometry">
            <mxPoint x="190" y="980" as="sourcePoint" />
            <mxPoint x="240" y="930" as="targetPoint" />
          </mxGeometry>
        </mxCell>
        <mxCell id="jdwVhn9pci9fnTV9FCDL-7" value="" style="endArrow=classic;html=1;rounded=0;entryX=0;entryY=0;entryDx=0;entryDy=90;entryPerimeter=0;strokeWidth=2;fontSize=13;fontStyle=1;fontColor=#00994D;" parent="1" target="jdwVhn9pci9fnTV9FCDL-5" edge="1">
          <mxGeometry width="50" height="50" relative="1" as="geometry">
            <mxPoint x="190" y="1100" as="sourcePoint" />
            <mxPoint x="350" y="1140" as="targetPoint" />
          </mxGeometry>
        </mxCell>
        <mxCell id="jdwVhn9pci9fnTV9FCDL-8" value="" style="endArrow=classic;html=1;rounded=0;entryX=0;entryY=0.5;entryDx=0;entryDy=0;entryPerimeter=0;strokeWidth=2;fontSize=13;fontStyle=1;fontColor=#00994D;" parent="1" target="jdwVhn9pci9fnTV9FCDL-5" edge="1">
          <mxGeometry width="50" height="50" relative="1" as="geometry">
            <mxPoint x="190" y="1040" as="sourcePoint" />
            <mxPoint x="350" y="1080" as="targetPoint" />
          </mxGeometry>
        </mxCell>
        <mxCell id="jdwVhn9pci9fnTV9FCDL-9" value="ETL" style="text;html=1;align=center;verticalAlign=middle;whiteSpace=wrap;rounded=0;strokeWidth=2;fontSize=13;fontStyle=1;fontColor=#00994D;" parent="1" vertex="1">
          <mxGeometry x="240" y="970" width="60" height="30" as="geometry" />
        </mxCell>
        <mxCell id="jdwVhn9pci9fnTV9FCDL-10" value="ETL" style="text;html=1;align=center;verticalAlign=middle;whiteSpace=wrap;rounded=0;strokeWidth=2;fontSize=13;fontStyle=1;fontColor=#00994D;" parent="1" vertex="1">
          <mxGeometry x="220" y="1020" width="60" height="30" as="geometry" />
        </mxCell>
        <mxCell id="jdwVhn9pci9fnTV9FCDL-11" value="ETL" style="text;html=1;align=center;verticalAlign=middle;whiteSpace=wrap;rounded=0;strokeWidth=2;fontSize=13;fontStyle=1;fontColor=#00994D;" parent="1" vertex="1">
          <mxGeometry x="260" y="1080" width="60" height="30" as="geometry" />
        </mxCell>
        <mxCell id="jdwVhn9pci9fnTV9FCDL-12" value="Data warehouse" style="text;html=1;align=center;verticalAlign=middle;whiteSpace=wrap;rounded=0;strokeWidth=2;fontSize=13;fontStyle=1;fontColor=#00994D;" parent="1" vertex="1">
          <mxGeometry x="375" y="1030" width="60" height="30" as="geometry" />
        </mxCell>
        <mxCell id="jdwVhn9pci9fnTV9FCDL-13" value="" style="endArrow=classic;html=1;rounded=0;strokeWidth=2;fontSize=13;fontStyle=1;fontColor=#00994D;" parent="1" edge="1">
          <mxGeometry width="50" height="50" relative="1" as="geometry">
            <mxPoint x="460" y="1040" as="sourcePoint" />
            <mxPoint x="540" y="1040" as="targetPoint" />
          </mxGeometry>
        </mxCell>
        <mxCell id="jdwVhn9pci9fnTV9FCDL-17" value="Reporting Layer" style="rounded=0;whiteSpace=wrap;html=1;strokeWidth=2;fontSize=13;fontStyle=1;fontColor=#00994D;" parent="1" vertex="1">
          <mxGeometry x="690" y="960" width="90" height="180" as="geometry" />
        </mxCell>
        <mxCell id="jdwVhn9pci9fnTV9FCDL-18" value="" style="shape=cube;whiteSpace=wrap;html=1;boundedLbl=1;backgroundOutline=1;darkOpacity=0.05;darkOpacity2=0.1;strokeWidth=2;fontSize=13;fontStyle=1;fontColor=#00994D;" parent="1" vertex="1">
          <mxGeometry x="540" y="1005" width="80" height="80" as="geometry" />
        </mxCell>
        <mxCell id="jdwVhn9pci9fnTV9FCDL-19" value="" style="endArrow=classic;html=1;rounded=0;strokeWidth=2;fontSize=13;fontStyle=1;fontColor=#00994D;" parent="1" edge="1">
          <mxGeometry width="50" height="50" relative="1" as="geometry">
            <mxPoint x="620" y="1049" as="sourcePoint" />
            <mxPoint x="690" y="1050" as="targetPoint" />
          </mxGeometry>
        </mxCell>
        <mxCell id="jdwVhn9pci9fnTV9FCDL-20" value="Text" style="text;html=1;align=center;verticalAlign=middle;whiteSpace=wrap;rounded=0;" parent="1" vertex="1">
          <mxGeometry x="380" y="880" width="60" height="30" as="geometry" />
        </mxCell>
        <mxCell id="jdwVhn9pci9fnTV9FCDL-21" value="OLAP cube" style="text;html=1;align=center;verticalAlign=middle;whiteSpace=wrap;rounded=0;strokeWidth=2;fontSize=13;fontStyle=1;fontColor=#00994D;" parent="1" vertex="1">
          <mxGeometry x="545" y="1085" width="70" height="30" as="geometry" />
        </mxCell>
        <mxCell id="qt6cId_X-g6tokO9jnT8-1" value="&lt;b style=&quot;font-size: 14px;&quot;&gt;1. Nhận dạng&lt;/b&gt;&lt;div style=&quot;&quot;&gt;&lt;font style=&quot;font-size: 11px;&quot;&gt;(Xác định bậc của mô hình)&lt;/font&gt;&lt;/div&gt;" style="rounded=1;whiteSpace=wrap;html=1;fontSize=14;spacing=4;" vertex="1" parent="1">
          <mxGeometry x="200" y="160" width="160" height="60" as="geometry" />
        </mxCell>
        <mxCell id="qt6cId_X-g6tokO9jnT8-2" value="&lt;b&gt;2. Ước lượng&lt;/b&gt;&lt;br&gt;&lt;font style=&quot;font-size: 11px;&quot;&gt;(Các hệ số của mô hình)&lt;/font&gt;" style="rounded=1;whiteSpace=wrap;html=1;" vertex="1" parent="1">
          <mxGeometry x="200" y="280" width="160" height="60" as="geometry" />
        </mxCell>
        <mxCell id="qt6cId_X-g6tokO9jnT8-3" value="3. Kiểm tra mô hình&lt;br&gt;&lt;span style=&quot;font-weight: normal;&quot;&gt;&lt;font style=&quot;font-size: 11px;&quot;&gt;(Mô hình có đủ tốt)&lt;/font&gt;&lt;/span&gt;" style="rounded=1;whiteSpace=wrap;html=1;fontStyle=1" vertex="1" parent="1">
          <mxGeometry x="200" y="400" width="160" height="60" as="geometry" />
        </mxCell>
        <mxCell id="qt6cId_X-g6tokO9jnT8-4" value="Dữ liệu" style="rounded=1;whiteSpace=wrap;html=1;" vertex="1" parent="1">
          <mxGeometry x="440" y="120" width="120" height="30" as="geometry" />
        </mxCell>
        <mxCell id="qt6cId_X-g6tokO9jnT8-5" value="" style="edgeStyle=segmentEdgeStyle;endArrow=classic;html=1;curved=0;rounded=0;endSize=3;startSize=8;" edge="1" parent="1">
          <mxGeometry width="50" height="50" relative="1" as="geometry">
            <mxPoint x="200" y="444" as="sourcePoint" />
            <mxPoint x="200" y="190" as="targetPoint" />
            <Array as="points">
              <mxPoint x="160" y="444" />
              <mxPoint x="160" y="190" />
            </Array>
          </mxGeometry>
        </mxCell>
        <mxCell id="qt6cId_X-g6tokO9jnT8-6" value="No" style="edgeLabel;html=1;align=center;verticalAlign=middle;resizable=0;points=[];fontStyle=1" vertex="1" connectable="0" parent="qt6cId_X-g6tokO9jnT8-5">
          <mxGeometry x="-0.8672" relative="1" as="geometry">
            <mxPoint as="offset" />
          </mxGeometry>
        </mxCell>
        <mxCell id="qt6cId_X-g6tokO9jnT8-7" value="" style="endArrow=classic;html=1;rounded=0;endSize=3;" edge="1" parent="1">
          <mxGeometry width="50" height="50" relative="1" as="geometry">
            <mxPoint x="360" y="190" as="sourcePoint" />
            <mxPoint x="440" y="140" as="targetPoint" />
          </mxGeometry>
        </mxCell>
        <mxCell id="qt6cId_X-g6tokO9jnT8-8" value="Mô hình hóa" style="rounded=1;whiteSpace=wrap;html=1;" vertex="1" parent="1">
          <mxGeometry x="440" y="210" width="120" height="30" as="geometry" />
        </mxCell>
        <mxCell id="qt6cId_X-g6tokO9jnT8-9" value="" style="endArrow=classic;html=1;rounded=0;endSize=3;entryX=0;entryY=0.5;entryDx=0;entryDy=0;exitX=1;exitY=0.5;exitDx=0;exitDy=0;" edge="1" parent="1" source="qt6cId_X-g6tokO9jnT8-1" target="qt6cId_X-g6tokO9jnT8-8">
          <mxGeometry width="50" height="50" relative="1" as="geometry">
            <mxPoint x="370" y="200" as="sourcePoint" />
            <mxPoint x="450" y="150" as="targetPoint" />
          </mxGeometry>
        </mxCell>
      </root>
    </mxGraphModel>
  </diagram>
</mxfile>
